<svg xmlns="http://www.w3.org/2000/svg" viewBox="0 0 64 64">
    <path
        d="M61,6V24a2.006,2.006,0,0,1-2,2H37l-4,6V26H25a2.006,2.006,0,0,1-2-2V6a2.006,2.006,0,0,1,2-2H59A2.006,2.006,0,0,1,61,6Z"
        style="fill:#bdfdff"></path>
    <path d="M61,6V24a2.006,2.006,0,0,1-2,2H55a2.006,2.006,0,0,0,2-2V6a2.006,2.006,0,0,0-2-2h4A2.006,2.006,0,0,1,61,6Z"
          style="fill:#00e7f0"></path>
    <path d="M56,15l-5,3V17c0-1.66-4.03-3-9-3s-9,1.34-9,3v1l-5-3L42,8Z" style="fill:#ff3051"></path>
    <path
        d="M51,18v2a.5.5,0,0,1-.21.35C49.9,19.01,46.3,18,42,18s-7.9,1.01-8.79,2.35A.5.5,0,0,1,33,20V17c0-1.66,4.03-3,9-3s9,1.34,9,3Z"
        style="fill:#cd2a00"></path>
    <path d="M50.79,20.35C49.9,21.12,46.3,22,42,22s-7.9-.88-8.79-1.65C34.1,19.01,37.7,18,42,18S49.9,19.01,50.79,20.35Z"
          style="fill:#ff3051"></path>
    <path d="M28.41,40.59A1.955,1.955,0,0,1,29,42a2.006,2.006,0,0,1-2,2H26V40h1A1.955,1.955,0,0,1,28.41,40.59Z"
          style="fill:#ffc477"></path>
    <path d="M26,44v1a9,9,0,0,1-9,9H15a9,9,0,0,1-9-9V41s5,0,7-3v5a14.651,14.651,0,0,0,13-6v7Z"
          style="fill:#ffc477"></path>
    <path d="M26,37v8a9,9,0,0,1-9,9H15a8.262,8.262,0,0,1-1-.06A8.993,8.993,0,0,0,22,45V40.8A14.088,14.088,0,0,0,26,37Z"
          style="fill:#ffa733"></path>
    <path d="M17,28a9,9,0,0,1,9,9,14.651,14.651,0,0,1-13,6V38c-2,3-7,3-7,3V37a9,9,0,0,1,9-9Z"
          style="fill:#ffd422"></path>
    <path
        d="M26,37a14.651,14.651,0,0,1-13,6v-.24A14.174,14.174,0,0,0,22,37a8.993,8.993,0,0,0-8-8.94A8.262,8.262,0,0,1,15,28h2A9,9,0,0,1,26,37Z"
        style="fill:#ebbf00"></path>
    <path d="M18,59v1.94A8.262,8.262,0,0,1,17,61H14V59a2.006,2.006,0,0,1,2-2,2.015,2.015,0,0,1,2,2Z"
          style="fill:#c0ab91"></path>
    <path
        d="M18,59v1.94A8.262,8.262,0,0,1,17,61H16V59a1.955,1.955,0,0,0-.59-1.41,1.813,1.813,0,0,0-.41-.32A2,2,0,0,1,16,57a2.015,2.015,0,0,1,2,2Z"
        style="fill:#a78966"></path>
    <path d="M6,41v3H5a2.006,2.006,0,0,1-2-2,2.015,2.015,0,0,1,2-2H6Z" style="fill:#ffc477"></path>
    <path
        d="M59,3H25a3.009,3.009,0,0,0-3,3V24a3.009,3.009,0,0,0,3,3h7v5a1.008,1.008,0,0,0,.71.96A.967.967,0,0,0,33,33a.984.984,0,0,0,.83-.45L37.54,27H59a3.009,3.009,0,0,0,3-3V6A3.009,3.009,0,0,0,59,3Zm1,21a1,1,0,0,1-1,1H37a1,1,0,0,0-.83.45L34,28.7V26a1,1,0,0,0-1-1H25a1,1,0,0,1-1-1V6a1,1,0,0,1,1-1H59a1,1,0,0,1,1,1Z"></path>
    <path d="M22,44a1,1,0,0,0-1,1,4,4,0,0,1-4,4,1,1,0,0,0,0,2,6.006,6.006,0,0,0,6-6A1,1,0,0,0,22,44Z"></path>
    <path
        d="M29.13,39.89A2.971,2.971,0,0,0,27,39V37A10.016,10.016,0,0,0,17,27H15A10.016,10.016,0,0,0,5,37v2a3,3,0,0,0-3,3,3.009,3.009,0,0,0,3,3A10.016,10.016,0,0,0,15,55h2a9.989,9.989,0,0,0,8-4.03V52a8.015,8.015,0,0,1-6,7.75V59a3,3,0,0,0-3-3,3.009,3.009,0,0,0-3,3v2a1,1,0,0,0,1,1h3A10.016,10.016,0,0,0,27,52V45a3.009,3.009,0,0,0,3-3A2.954,2.954,0,0,0,29.13,39.89ZM5,43a1,1,0,0,1-1-1,.949.949,0,0,1,.31-.71A.928.928,0,0,1,5,41ZM17,60H15V59a1,1,0,0,1,1-1,.949.949,0,0,1,.71.31A.928.928,0,0,1,17,59ZM7,37a8.011,8.011,0,0,1,8-8h2a8,8,0,0,1,7.98,7.68A13.489,13.489,0,0,1,14,42.06V38a1,1,0,0,0-1.83-.55C10.98,39.22,8.42,39.76,7,39.93Zm18,8a8.011,8.011,0,0,1-8,8H15a8.011,8.011,0,0,1-8-8V41.94a11.526,11.526,0,0,0,5-1.61V43a1,1,0,0,0,.88.99,10.431,10.431,0,0,0,1.23.06A15.631,15.631,0,0,0,25,39.7Zm2-2V41a.949.949,0,0,1,.71.31A.928.928,0,0,1,28,42,1,1,0,0,1,27,43Z"></path>
    <path d="M37,38H35a1,1,0,0,0,0,2h2a1,1,0,0,0,0-2Z"></path>
    <path d="M57,38H41a1,1,0,0,0,0,2H57a1,1,0,0,0,0-2Z"></path>
    <path d="M37,44H35a1,1,0,0,0,0,2h2a1,1,0,0,0,0-2Z"></path>
    <path d="M57,44H41a1,1,0,0,0,0,2H57a1,1,0,0,0,0-2Z"></path>
    <path d="M37,50H35a1,1,0,0,0,0,2h2a1,1,0,0,0,0-2Z"></path>
    <path d="M57,50H41a1,1,0,0,0,0,2H57a1,1,0,0,0,0-2Z"></path>
    <path d="M37,56H35a1,1,0,0,0,0,2h2a1,1,0,0,0,0-2Z"></path>
    <path d="M57,56H41a1,1,0,0,0,0,2H57a1,1,0,0,0,0-2Z"></path>
    <path d="M3,4H5A1,1,0,0,0,5,2H3A1,1,0,0,0,3,4Z"></path>
    <path d="M9,4h6a1,1,0,0,0,0-2H9A1,1,0,0,0,9,4Z"></path>
    <path d="M3,10H5A1,1,0,0,0,5,8H3a1,1,0,0,0,0,2Z"></path>
    <path d="M9,10h6a1,1,0,0,0,0-2H9a1,1,0,0,0,0,2Z"></path>
    <path d="M3,16H5a1,1,0,0,0,0-2H3a1,1,0,0,0,0,2Z"></path>
    <path d="M9,16h6a1,1,0,0,0,0-2H9a1,1,0,0,0,0,2Z"></path>
    <path d="M3,22H5a1,1,0,0,0,0-2H3a1,1,0,0,0,0,2Z"></path>
    <path d="M9,22h6a1,1,0,0,0,0-2H9a1,1,0,0,0,0,2Z"></path>
    <path
        d="M57,19.28V14.96a1,1,0,0,0-.55-.85l-14-7a.956.956,0,0,0-.9,0l-14,7a1,1,0,0,0-.06,1.75L32,18.57V20c0,2.45,7.41,3,10,3s10-.55,10-3V18.57l3-1.8v2.51a2,2,0,1,0,2,0ZM42,21a25.7,25.7,0,0,1-6.83-.85A17.274,17.274,0,0,1,42,19a17.274,17.274,0,0,1,6.83,1.15A25.7,25.7,0,0,1,42,21Zm8-2.51A19.206,19.206,0,0,0,42,17a19.206,19.206,0,0,0-8,1.49V17c0-.51,2.75-2,8-2s8,1.49,8,2Zm1.87-2.18C51.08,14.05,46.39,13,42,13s-9.08,1.05-9.87,3.31l-2.05-1.23L42,9.12l11.92,5.96Z"></path>
</svg>
