<svg xmlns="http://www.w3.org/2000/svg" viewBox="0 0 64 64">
    <path d="m61 47v8a6 6 0 0 1 -12 0v-8a6 6 0 0 1 6-6 6.009 6.009 0 0 1 6 6z" fill="#c6c5ca"></path>
    <path
        d="m61 47v8a6 6 0 0 1 -6 6 5.8 5.8 0 0 1 -2-.35 5.981 5.981 0 0 0 4-5.65v-8a5.944 5.944 0 0 0 -1.76-4.24 5.769 5.769 0 0 0 -2.24-1.41 5.8 5.8 0 0 1 2-.35 6.009 6.009 0 0 1 6 6z"
        fill="#acabb1"></path>
    <path d="m37 9v35a2.006 2.006 0 0 1 -2 2h-28a4 4 0 0 1 -4-4v-36a3 3 0 0 0 3 3z" fill="#a78966"></path>
    <path d="m6 3h31a3 3 0 0 0 0 6h-31a3 3 0 0 1 0-6z" fill="#fee9ab"></path>
    <path d="m37 9v35a2.006 2.006 0 0 1 -2 2h-4a2.006 2.006 0 0 0 2-2v-35z" fill="#957856"></path>
    <path d="m37 9h-4a3 3 0 0 1 0-6h4a3 3 0 0 0 0 6z" fill="#ffde55"></path>
    <rect fill="#bdfdff" height="9" rx="1" width="16" x="12" y="15"></rect>
    <path
        d="m56 40.08v-21.08a7 7 0 0 0 -14 0v3a3.009 3.009 0 0 1 -3 3h-1v-16a1 1 0 0 0 -1-1 2 2 0 0 1 0-4 1 1 0 0 0 0-2h-31a4 4 0 0 0 -4 4v36a5 5 0 0 0 5 5h28a3.009 3.009 0 0 0 3-3v-17h1a5 5 0 0 0 5-5v-3a5 5 0 0 1 10 0v21.08a7 7 0 0 0 -6 6.92v8a7 7 0 0 0 14 0v-8a7 7 0 0 0 -6-6.92zm-50-36.08h27.56a3.851 3.851 0 0 0 0 4h-27.56a2 2 0 0 1 0-4zm30 40a1 1 0 0 1 -1 1h-28a3.009 3.009 0 0 1 -3-3v-32.56a3.906 3.906 0 0 0 2 .56h30zm24 11a5 5 0 0 1 -10 0v-8a5 5 0 0 1 10 0z"></path>
    <path
        d="m27 14h-14a2.006 2.006 0 0 0 -2 2v7a2.006 2.006 0 0 0 2 2h14a2.006 2.006 0 0 0 2-2v-7a2.006 2.006 0 0 0 -2-2zm0 9h-14v-7h14z"></path>
    <path d="m55 44a1 1 0 0 0 -1 1v4a1 1 0 0 0 2 0v-4a1 1 0 0 0 -1-1z"></path>
    <path d="m5 54h-2a1 1 0 0 0 0 2h2a1 1 0 0 0 0-2z"></path>
    <path d="m37 54h-28a1 1 0 0 0 0 2h28a1 1 0 0 0 0-2z"></path>
    <path d="m5 60h-2a1 1 0 0 0 0 2h2a1 1 0 0 0 0-2z"></path>
    <path d="m37 60h-28a1 1 0 0 0 0 2h28a1 1 0 0 0 0-2z"></path>
</svg>
