<svg xmlns="http://www.w3.org/2000/svg" viewBox="0 0 64 64">
    <path
        d="M60.55,55.79a1.02,1.02,0,0,1,.15,1.57L57.36,60.7a1.02,1.02,0,0,1-1.57-.15l-3.38-5.08L38.58,41.64a4.11,4.11,0,0,0-1.07-.77l-3.02-1.51a19.43,19.43,0,0,0,4.87-4.87l1.54,3.06a4.232,4.232,0,0,0,.77,1.06L55.46,52.4Z"
        style="fill:#a78966"></path>
    <path
        d="M60.7,57.36,57.36,60.7a1.02,1.02,0,0,1-1.57-.15l-.11-.17,3.02-3.02a1.02,1.02,0,0,0-.15-1.57L53.46,52.4,39.67,38.61a4.232,4.232,0,0,1-.77-1.06l-.75-1.49c.43-.5.83-1.03,1.21-1.57l1.54,3.06a4.232,4.232,0,0,0,.77,1.06L55.46,52.4l5.09,3.39A1.02,1.02,0,0,1,60.7,57.36Z"
        style="fill:#957856"></path>
    <path d="M43,23a19.8,19.8,0,0,1-3.64,11.49,19.43,19.43,0,0,1-4.87,4.87A19.993,19.993,0,1,1,43,23Z"
          style="fill:#c6c5ca"></path>
    <path
        d="M43,23a19.8,19.8,0,0,1-3.64,11.49,19.43,19.43,0,0,1-4.87,4.87A19.8,19.8,0,0,1,23,43a18.749,18.749,0,0,1-2.5-.16,19.779,19.779,0,0,0,8.99-3.48,19.43,19.43,0,0,0,4.87-4.87A19.8,19.8,0,0,0,38,23,19.994,19.994,0,0,0,20.5,3.16,18.749,18.749,0,0,1,23,3,19.994,19.994,0,0,1,43,23Z"
        style="fill:#acabb1"></path>
    <path d="M39,23H31a27.753,27.753,0,0,0-1.52-9.37A16.183,16.183,0,0,0,33.59,11,15.957,15.957,0,0,1,39,23Z"
          style="fill:#2488ff"></path>
    <path d="M31,23h8a15.957,15.957,0,0,1-5.41,12,16.183,16.183,0,0,0-4.11-2.63A27.753,27.753,0,0,0,31,23Z"
          style="fill:#57a4ff"></path>
    <path
        d="M31,23H15a27.753,27.753,0,0,1,1.52-9.37A15.906,15.906,0,0,0,23,15a15.906,15.906,0,0,0,6.48-1.37A27.753,27.753,0,0,1,31,23Z"
        style="fill:#57a4ff"></path>
    <path d="M15,23H31a27.753,27.753,0,0,1-1.52,9.37,16.01,16.01,0,0,0-12.96,0A27.753,27.753,0,0,1,15,23Z"
          style="fill:#2488ff"></path>
    <path d="M33.59,11a16.183,16.183,0,0,1-4.11,2.63C28.03,9.61,25.67,7,23,7A15.949,15.949,0,0,1,33.59,11Z"
          style="fill:#57a4ff"></path>
    <path d="M29.48,32.37A16.183,16.183,0,0,1,33.59,35,15.949,15.949,0,0,1,23,39C25.67,39,28.03,36.39,29.48,32.37Z"
          style="fill:#2488ff"></path>
    <path
        d="M29.48,13.63A15.906,15.906,0,0,1,23,15a15.906,15.906,0,0,1-6.48-1.37C17.97,9.61,20.33,7,23,7S28.03,9.61,29.48,13.63Z"
        style="fill:#2488ff"></path>
    <path
        d="M23,31a15.906,15.906,0,0,1,6.48,1.37C28.03,36.39,25.67,39,23,39s-5.03-2.61-6.48-6.63A15.906,15.906,0,0,1,23,31Z"
        style="fill:#2488ff"></path>
    <path d="M23,7c-2.67,0-5.03,2.61-6.48,6.63A16.183,16.183,0,0,1,12.41,11,15.949,15.949,0,0,1,23,7Z"
          style="fill:#57a4ff"></path>
    <path d="M16.52,32.37C17.97,36.39,20.33,39,23,39a15.949,15.949,0,0,1-10.59-4A16.183,16.183,0,0,1,16.52,32.37Z"
          style="fill:#2488ff"></path>
    <path d="M16.52,13.63A27.753,27.753,0,0,0,15,23H7a15.957,15.957,0,0,1,5.41-12A16.183,16.183,0,0,0,16.52,13.63Z"
          style="fill:#2488ff"></path>
    <path d="M15,23a27.753,27.753,0,0,0,1.52,9.37A16.183,16.183,0,0,0,12.41,35,15.957,15.957,0,0,1,7,23Z"
          style="fill:#57a4ff"></path>
    <path
        d="M61.1,54.96l-5-3.34L42.38,37.9a2.911,2.911,0,0,1-.59-.8l-1.28-2.54a21.048,21.048,0,1,0-5.95,5.95l2.5,1.26a2.925,2.925,0,0,1,.81.58L51.63,56.11l3.33,5a2.007,2.007,0,0,0,1.5.88,1.087,1.087,0,0,0,.18.01,2.012,2.012,0,0,0,1.43-.59l3.33-3.34a1.964,1.964,0,0,0,.59-1.61A1.989,1.989,0,0,0,61.1,54.96ZM23,42A19,19,0,1,1,42,23,19.017,19.017,0,0,1,23,42ZM56.62,60l-3.38-5.08a.955.955,0,0,0-.12-.16L39.29,40.93a4.976,4.976,0,0,0-1.33-.95l-1.59-.8a21.316,21.316,0,0,0,2.81-2.81l.83,1.64a5.355,5.355,0,0,0,.95,1.31L54.75,53.11a.955.955,0,0,0,.16.12l5.08,3.42Z"></path>
    <path
        d="M23,6A17,17,0,1,0,40,23,17.024,17.024,0,0,0,23,6ZM37.95,22H31.97a28.874,28.874,0,0,0-1.26-7.86,16.876,16.876,0,0,0,2.82-1.81A14.969,14.969,0,0,1,37.95,22ZM31.98,11.01a14.364,14.364,0,0,1-1.96,1.24A15.171,15.171,0,0,0,28.1,8.91,15,15,0,0,1,31.98,11.01ZM16.02,22a27.533,27.533,0,0,1,1.12-7.05A16.833,16.833,0,0,0,23,16a16.833,16.833,0,0,0,5.86-1.05A27.533,27.533,0,0,1,29.98,22Zm13.96,2a27.533,27.533,0,0,1-1.12,7.05,16.877,16.877,0,0,0-11.72,0A27.533,27.533,0,0,1,16.02,24ZM23,8c2.03,0,3.89,1.99,5.19,5.07A14.941,14.941,0,0,1,23,14a14.941,14.941,0,0,1-5.19-.93C19.11,9.99,20.97,8,23,8Zm-5.1.91a15.171,15.171,0,0,0-1.92,3.34,14.364,14.364,0,0,1-1.96-1.24A15,15,0,0,1,17.9,8.91Zm-5.43,3.42a16.876,16.876,0,0,0,2.82,1.81A28.874,28.874,0,0,0,14.03,22H8.05A14.969,14.969,0,0,1,12.47,12.33ZM8.05,24h5.98a28.874,28.874,0,0,0,1.26,7.86,16.876,16.876,0,0,0-2.82,1.81A14.969,14.969,0,0,1,8.05,24Zm5.97,10.99a14.364,14.364,0,0,1,1.96-1.24,15.171,15.171,0,0,0,1.92,3.34A15,15,0,0,1,14.02,34.99ZM23,38c-2.03,0-3.89-1.99-5.19-5.07a14.947,14.947,0,0,1,10.38,0C26.89,36.01,25.03,38,23,38Zm5.1-.91a15.171,15.171,0,0,0,1.92-3.34,14.364,14.364,0,0,1,1.96,1.24A15,15,0,0,1,28.1,37.09Zm5.43-3.42a16.876,16.876,0,0,0-2.82-1.81A28.874,28.874,0,0,0,31.97,24h5.98A14.969,14.969,0,0,1,33.53,33.67Z"></path>
    <path d="M47,4H61a1,1,0,0,0,0-2H47a1,1,0,0,0,0,2Z"></path>
    <path d="M41,4h2a1,1,0,0,0,0-2H41a1,1,0,0,0,0,2Z"></path>
    <path d="M61,8H49a1,1,0,0,0,0,2H61a1,1,0,0,0,0-2Z"></path>
    <path d="M42,9a1,1,0,0,0,1,1h2a1,1,0,0,0,0-2H43A1,1,0,0,0,42,9Z"></path>
    <path d="M61,14H53a1,1,0,0,0,0,2h8a1,1,0,0,0,0-2Z"></path>
    <path d="M46,15a1,1,0,0,0,1,1h2a1,1,0,0,0,0-2H47A1,1,0,0,0,46,15Z"></path>
    <path d="M23,48H9a1,1,0,0,0,0,2H23a1,1,0,0,0,0-2Z"></path>
    <path d="M5,48H3a1,1,0,0,0,0,2H5a1,1,0,0,0,0-2Z"></path>
    <path d="M23,54H9a1,1,0,0,0,0,2H23a1,1,0,0,0,0-2Z"></path>
    <path d="M5,54H3a1,1,0,0,0,0,2H5a1,1,0,0,0,0-2Z"></path>
    <path d="M23,60H9a1,1,0,0,0,0,2H23a1,1,0,0,0,0-2Z"></path>
    <path d="M5,60H3a1,1,0,0,0,0,2H5a1,1,0,0,0,0-2Z"></path>
</svg>
