<svg xmlns="http://www.w3.org/2000/svg" viewBox="0 0 64 64">
    <path d="m61 24v16h-14v-13.88a4.009 4.009 0 0 0 -3.03-3.88l-.96-.24h2.99l5 2 5-2h3a2.006 2.006 0 0 1 2 2z"
          fill="#2488ff"></path>
    <path d="m61 24v16h-4v-16a2 2 0 0 0 -1.31-1.87l.31-.13h3a2.006 2.006 0 0 1 2 2z" fill="#006df0"></path>
    <circle cx="55" cy="53" fill="#ff3051" r="2"></circle>
    <path d="m56 12v2a5 5 0 0 1 -10 0v-2a5 5 0 0 1 10 0z" fill="#ffc477"></path>
    <path
        d="m47 40v5h-30v-18.88a4.009 4.009 0 0 1 3.03-3.88l.96-.24h.01l4-1 7 4 7-4 4 1h.01l.96.24a4.009 4.009 0 0 1 3.03 3.88z"
        fill="#ff3051"></path>
    <path
        d="m47 26.12v18.88h-4v-18.88a4.009 4.009 0 0 0 -3.03-3.88l-.96-.24h-.01l-1.22-.3 1.22-.7 4 1h.01l.96.24a4.009 4.009 0 0 1 3.03 3.88z"
        fill="#cd2a00"></path>
    <path d="m39 10v2a7 7 0 0 1 -14 0v-2a7 7 0 1 1 14 0z" fill="#ffc477"></path>
    <circle cx="32" cy="59" fill="#ff3051" r="2"></circle>
    <path d="m20.99 22-.96.24a4.009 4.009 0 0 0 -3.03 3.88v13.88h-14v-16a2.006 2.006 0 0 1 2-2h3l5 2 5-2z"
          fill="#91dc5a"></path>
    <path d="m18 12v2a5 5 0 0 1 -10 0v-2a5 5 0 1 1 10 0z" fill="#ffc477"></path>
    <path
        d="m56 12v2a5 5 0 0 1 -5 5 5.106 5.106 0 0 1 -2-.41 5.029 5.029 0 0 0 3-4.59v-2a5.029 5.029 0 0 0 -3-4.59 5.106 5.106 0 0 1 2-.41 5 5 0 0 1 5 5z"
        fill="#ffa733"></path>
    <path d="m39 10v2a7 7 0 0 1 -7 7 6.908 6.908 0 0 1 -2-.29 7 7 0 0 0 5-6.71v-2a7 7 0 0 0 -5-6.71 7 7 0 0 1 9 6.71z"
          fill="#ffa733"></path>
    <path
        d="m18 12v2a5 5 0 0 1 -5 5 5.106 5.106 0 0 1 -2-.41 5.029 5.029 0 0 0 3-4.59v-2a5.022 5.022 0 0 0 -1.46-3.54 5.131 5.131 0 0 0 -1.54-1.05 5.106 5.106 0 0 1 2-.41 4.985 4.985 0 0 1 5 5z"
        fill="#ffa733"></path>
    <circle cx="9" cy="53" fill="#ff3051" r="2"></circle>
    <g fill="#cd2a00">
        <path d="m34 59a2 2 0 0 1 -3 1.73 2 2 0 0 0 0-3.46 2 2 0 0 1 3 1.73z"></path>
        <path d="m57 53a2 2 0 0 1 -3 1.73 2 2 0 0 0 0-3.46 2 2 0 0 1 3 1.73z"></path>
        <path d="m11 53a2 2 0 0 1 -3 1.73 2 2 0 0 0 0-3.46 2 2 0 0 1 3 1.73z"></path>
    </g>
    <path
        d="m32 2a8.011 8.011 0 0 0 -8 8v2a8 8 0 0 0 16 0v-2a8.011 8.011 0 0 0 -8-8zm6 10a6 6 0 0 1 -12 0v-2a6 6 0 0 1 12 0z"></path>
    <path
        d="m13 20a6.006 6.006 0 0 0 6-6v-2a6 6 0 0 0 -12 0v2a6.006 6.006 0 0 0 6 6zm-4-8a4 4 0 0 1 8 0v2a4 4 0 0 1 -8 0z"></path>
    <path
        d="m51 20a6.006 6.006 0 0 0 6-6v-2a6 6 0 0 0 -12 0v2a6.006 6.006 0 0 0 6 6zm-4-8a4 4 0 0 1 8 0v2a4 4 0 0 1 -8 0z"></path>
    <path
        d="m44.21 21.27-4.97-1.24a1.009 1.009 0 0 0 -.74.1l-6.5 3.72-6.5-3.72a1.009 1.009 0 0 0 -.74-.1l-4.97 1.24a5 5 0 0 0 -3.79 4.85v18.88a1 1 0 0 0 1 1h30a1 1 0 0 0 1-1v-18.88a5 5 0 0 0 -3.79-4.85zm1.79 22.73h-28v-17.88a3 3 0 0 1 2.27-2.91l4.58-1.14 6.65 3.8a1.044 1.044 0 0 0 1 0l6.65-3.8 4.58 1.14a3 3 0 0 1 2.27 2.91z"></path>
    <path
        d="m14 40a1 1 0 0 1 -1 1h-10a1 1 0 0 1 -1-1v-16a3.009 3.009 0 0 1 3-3h3a.937.937 0 0 1 .37.07l5 2a1 1 0 1 1 -.74 1.86l-4.82-1.93h-2.81a1 1 0 0 0 -1 1v15h9a1 1 0 0 1 1 1z"></path>
    <path
        d="m62 24v16a1 1 0 0 1 -1 1h-10a1 1 0 0 1 0-2h9v-15a1 1 0 0 0 -1-1h-2.81l-4.82 1.93a1 1 0 1 1 -.74-1.86l5-2a.937.937 0 0 1 .37-.07h3a3.009 3.009 0 0 1 3 3z"></path>
    <path
        d="m61 52h-3.18a3.035 3.035 0 0 0 -1.82-1.82v-3.18a1 1 0 0 0 -2 0v3.18a2.988 2.988 0 0 0 0 5.64v2.18h-19.18a2.988 2.988 0 0 0 -5.64 0h-19.18v-2.18a2.988 2.988 0 0 0 0-5.64v-3.18a1 1 0 0 0 -2 0v3.18a3.035 3.035 0 0 0 -1.82 1.82h-3.18a1 1 0 0 0 0 2h3.18a3.035 3.035 0 0 0 1.82 1.82v3.18a1 1 0 0 0 1 1h20.18a2.988 2.988 0 0 0 5.64 0h20.18a1 1 0 0 0 1-1v-3.18a3.035 3.035 0 0 0 1.82-1.82h3.18a1 1 0 0 0 0-2zm-52 2a1 1 0 1 1 1-1 1 1 0 0 1 -1 1zm23 6a1 1 0 1 1 1-1 1 1 0 0 1 -1 1zm23-6a1 1 0 1 1 1-1 1 1 0 0 1 -1 1z"></path>

</svg>
